<mxfile host="app.diagrams.net" modified="2023-03-27T06:59:30.262Z" agent="Mozilla/5.0 (Windows NT 10.0; Win64; x64) AppleWebKit/537.36 (KHTML, like Gecko) Chrome/110.0.0.0 Safari/537.36 Edg/110.0.1587.41" version="21.1.1" etag="NqSXbW5jZobZ4LK7XEkJ" type="github">
  <diagram name="Page-1" id="zfvJlKOv0rdmK8e1R1Dt">
    <mxGraphModel>
      <root>
        <mxCell id="0" />
        <mxCell id="1" parent="0" />
      </root>
    </mxGraphModel>
  </diagram>
</mxfile>
